<?xml version="1.0" encoding="UTF-8"?>
<svg id="Logo" xmlns="http://www.w3.org/2000/svg" viewBox="0 0 283.46 59.12">
  <defs>
    <style>
      .cls-1 {
        fill: #fff;
      }
    </style>
  </defs>
  <path class="cls-1" d="M136.94,1.29h37.92c11.71,0,18.17,5.57,18.17,14.21,0,7.27-6.08,11.93-17.12,12.18h0c12.2.24,18.98,6,18.98,14.4,0,9.05-7.27,15.75-18.25,15.75h-39.7V1.29ZM172.03,23.91c6.06,0,9.53-1.37,9.53-6.3,0-5.17-3.47-6.7-9.53-6.7h-23.71l.08,13h23.63ZM173.57,48.06c6.38,0,9.77-3.07,9.77-8.4s-3.39-8.08-9.77-8.08h-25.16l.08,16.48h25.08Z"/>
  <path class="cls-1" d="M0,39.66h11.95c-.08,5.9,7.11,9.77,18.9,9.77,13.33,0,20.68-2.42,20.68-7.75,0-15.26-49.99,2.42-49.99-23.83C1.54,6.3,13.73,0,31.26,0,49.67,0,61.79,7.75,61.87,19.46h-11.71c0-5.98-7.11-9.85-18.58-9.85s-18.41,2.42-18.41,7.27c0,14.21,49.91-2.26,49.91,24.31,0,11.79-12.52,17.93-31.74,17.93S-.16,51.2,0,39.66Z"/>
  <path class="cls-1" d="M90.41,39.57L61.38,1.29h14.05l20.71,28.19L116.77,1.29h14.05l-28.94,38.2v18.33h-11.47v-18.25Z"/>
  <path class="cls-1" d="M246.88,11.37h-25.04V1.29h61.62v10.07h-25.12v46.46h-11.47V11.37Z"/>
  <g>
    <path class="cls-1" d="M215.47,15.93c0,.83-.08,1.62-.25,2.38-1.03,4.69-5.25,7.87-12.18,8.82V1.29h12.43v14.64Z"/>
    <path class="cls-1" d="M215.47,39.66c0-.83-.08-1.62-.25-2.38-1.03-4.69-5.25-7.87-12.18-8.82v29.37h12.43v-18.17Z"/>
  </g>
</svg>